<?xml version="1.0" encoding="UTF-8" standalone="no"?>
<!-- Created with Inkscape (http://www.inkscape.org/) -->

<svg
   xmlns:dc="http://purl.org/dc/elements/1.1/"
   xmlns:cc="http://creativecommons.org/ns#"
   xmlns:rdf="http://www.w3.org/1999/02/22-rdf-syntax-ns#"
   xmlns:svg="http://www.w3.org/2000/svg"
   xmlns="http://www.w3.org/2000/svg"
   xmlns:sodipodi="http://sodipodi.sourceforge.net/DTD/sodipodi-0.dtd"
   xmlns:inkscape="http://www.inkscape.org/namespaces/inkscape"
   width="222.496"
   height="17.302389"
   viewBox="0 0 58.868732 4.577924"
   version="1.1"
   id="svg2501"
   inkscape:version="0.92.0 r15299"
   sodipodi:docname="apm terminals.svg">
  <defs
     id="defs2495" />
  <sodipodi:namedview
     id="base"
     pagecolor="#ffffff"
     bordercolor="#666666"
     borderopacity="1.0"
     inkscape:pageopacity="0.0"
     inkscape:pageshadow="2"
     inkscape:zoom="0.934375"
     inkscape:cx="110.74711"
     inkscape:cy="8.1510879"
     inkscape:document-units="mm"
     inkscape:current-layer="layer1"
     showgrid="false"
     fit-margin-top="0"
     fit-margin-left="0"
     fit-margin-right="0"
     fit-margin-bottom="0"
     units="px"
     inkscape:window-width="1280"
     inkscape:window-height="744"
     inkscape:window-x="-4"
     inkscape:window-y="-4"
     inkscape:window-maximized="1" />
  <metadata
     id="metadata2498">
    <rdf:RDF>
      <cc:Work
         rdf:about="">
        <dc:format>image/svg+xml</dc:format>
        <dc:type
           rdf:resource="http://purl.org/dc/dcmitype/StillImage" />
        <dc:title></dc:title>
      </cc:Work>
    </rdf:RDF>
  </metadata>
  <g
     inkscape:label="Layer 1"
     inkscape:groupmode="layer"
     id="layer1"
     transform="translate(-79.555302,-186.47752)">
    <path
       d="m 108.60361,188.05835 -1.09361,2.50049 h 0.63747 l 0.23636,-0.5401 h 1.26718 l 0.23459,0.5401 h 0.66993 l -1.08726,-2.50049 z m -0.008,1.47743 0.42404,-0.96908 0.42157,0.96908 z m -7.90786,1.02306 h 0.48154 l 0.67204,-1.40547 v 1.40547 h 0.60113 v -2.50049 h -0.71402 l -0.79375,1.81681 -0.79304,-1.81681 h -0.734835 v 2.50049 H 100.009 v -1.40547 z m -13.486693,0 h 0.481541 l 0.672042,-1.40547 v 1.40547 h 0.601133 v -2.50049 h -0.714022 l -0.793397,1.81681 -0.793045,-1.81681 h -0.735188 v 2.50049 h 0.602191 v -1.40547 z m 8.750652,-2.50049 v 0.51541 h -1.734961 v 0.50906 h 1.45415 v 0.49635 h -1.453091 v 0.46391 h 1.733902 v 0.51576 h -2.37243 v -2.50049 z m -15.170502,0 -1.093611,2.50049 h 0.637469 l 0.236361,-0.5401 h 1.267178 l 0.23495,0.5401 h 0.669925 l -1.087614,-2.50049 z m -0.0085,1.47743 0.424039,-0.96908 0.421569,0.96908 z m 4.097161,-0.33761 h -1.219905 v -0.64135 h 1.219905 z m -1.872897,-1.13982 -3.53e-4,2.50049 h 0.653345 v -0.84632 h 1.465086 c 0.183091,-0.002 0.337255,-0.10936 0.354894,-0.35277 v -0.9331 c 0.0039,-0.20743 -0.176741,-0.3683 -0.39123,-0.3683 z m 28.536549,0 h -0.65088 v 2.50049 h 2.29235 v -0.51929 h -1.64147 z m -7.08837,0 v 2.50049 h 0.64594 v -1.72473 l 1.37936,1.72473 h 0.71367 v -2.50049 h -0.65476 v 1.7212 l -1.35219,-1.7212 z m -1.31692,2.50049 h 0.63112 v -1.2506 -1.24989 h -0.63112 z m -12.543715,-2.50049 v 0.53446 h 1.010003 v 1.96603 h 0.672042 v -1.96603 h 1.00965 v -0.53446 z m 23.193375,0 c -0.18486,-0.004 -0.36019,0.16439 -0.36019,0.33655 v 0.81315 c -0.003,0.21626 0.17533,0.3616 0.35701,0.3616 h 1.44639 v 0.48331 h -1.15252 v -0.20285 h -0.67769 v 0.34643 c -0.004,0.1845 0.17039,0.3623 0.36548,0.3623 h 1.76495 c 0.17885,0 0.35419,-0.13935 0.35419,-0.36936 v -0.7807 c -0.004,-0.22542 -0.17534,-0.36512 -0.36548,-0.37112 l -1.42276,-3.5e-4 v -0.46637 h 1.1169 v 0.1651 h 0.63324 v -0.33479 c 0.006,-0.16016 -0.15135,-0.34713 -0.3616,-0.3429 z m -17.398647,0 v 2.50049 h 0.633589 v -0.91617 h 0.72778 l 0.496359,0.91617 h 0.680508 l -0.510469,-0.91617 h 0.06174 c 0.193322,-0.0187 0.338314,-0.15663 0.342194,-0.36971 v -0.84631 c 0.0032,-0.20743 -0.176742,-0.3683 -0.39123,-0.3683 z m 1.859844,1.08902 h -1.226255 v -0.5715 h 1.226255 z"
       style="fill:#231f20;fill-opacity:1;fill-rule:nonzero;stroke:none;stroke-width:0.35277778"
       id="path1803"
       inkscape:connector-curvature="0" />
    <path
       d="m 138.29174,190.55845 v -0.3235 h -0.0917 l -0.067,0.20885 -0.0674,-0.20885 h -0.0914 v 0.3235 h 0.048 v -0.28328 l 0.0896,0.28328 h 0.031 l 0.0892,-0.28328 v 0.28328 z m -0.63676,-0.078 c 0.005,0.0148 0.0109,0.0349 0.0332,0.0522 0.0261,0.0215 0.0596,0.031 0.0988,0.031 0.0741,0 0.12876,-0.0378 0.12876,-0.1016 0,-0.0695 -0.0564,-0.085 -0.084,-0.0921 l -0.055,-0.0138 c -0.0162,-0.005 -0.0444,-0.0138 -0.0444,-0.0392 0,-0.0162 0.0106,-0.0402 0.0554,-0.0402 0.0466,0 0.0557,0.0258 0.0596,0.037 l 0.0554,-0.0141 c -0.003,-0.0106 -0.008,-0.0261 -0.0272,-0.042 -0.0254,-0.0194 -0.0564,-0.0279 -0.0889,-0.0279 -0.0649,0 -0.1143,0.0353 -0.1143,0.0967 0,0.0413 0.0226,0.0744 0.0699,0.0861 l 0.0723,0.0187 c 0.0145,0.004 0.0395,0.0116 0.0395,0.042 0,0.0152 -0.0106,0.0427 -0.0646,0.0427 -0.0106,0 -0.0243,-7.1e-4 -0.0402,-0.006 -0.0296,-0.009 -0.0349,-0.0303 -0.0381,-0.042 z m -5.92632,0.078 v -1.37477 h 0.2286 v 0.68756 0.68721 z m -8.52029,0 v -1.01847 h 0.22896 v 0.50941 0.50906 z m 0,-1.13594 v -0.23883 h 0.22896 v 0.11923 0.1196 z m -0.88512,-2.8127 -5.05283,2.90195 v 0.2727 l 5.05283,-2.48497 z m 1.99673,0.80645 v -0.68615 l -2.95134,1.45132 v 0.38771 z m -8.0645,3.48227 v -0.21661 l 3.27942,-1.61254 v 0.40075 z m 20.99345,-0.96873 c -0.002,-0.0515 -0.006,-0.0991 -0.049,-0.15875 -0.0409,-0.0536 -0.0988,-0.0885 -0.17744,-0.0885 -0.078,0 -0.14006,0.0328 -0.18345,0.0991 -0.0349,0.0512 -0.0409,0.0945 -0.0473,0.14817 z m 0.22119,0.33373 c -0.0723,0.22507 -0.25012,0.31503 -0.44979,0.31503 -0.33585,0 -0.46778,-0.26917 -0.46778,-0.52529 0,-0.29845 0.17921,-0.53163 0.47801,-0.53163 0.3302,0 0.46426,0.26211 0.45791,0.55633 h -0.69674 c -0.002,0.0681 -0.004,0.14852 0.0536,0.22895 0.043,0.0639 0.10725,0.0928 0.18944,0.0928 0.16299,0 0.20638,-0.10936 0.2286,-0.16475 z m -1.35643,-0.3048 c 0,-0.0889 -0.0127,-0.12806 -0.054,-0.18556 -0.0349,-0.0494 -0.10125,-0.0766 -0.15664,-0.0766 -0.20602,0 -0.21625,0.26812 -0.21625,0.3549 0,0.0699 0.004,0.34008 0.21025,0.34008 0.10478,0 0.21661,-0.0967 0.21661,-0.26 z m 0.0145,0.59972 v -0.20426 c -0.0289,0.0681 -0.0949,0.22437 -0.29915,0.22437 -0.35454,0 -0.38523,-0.43251 -0.38523,-0.54152 0,-0.19755 0.0861,-0.53586 0.39758,-0.53586 0.10124,0 0.20602,0.0332 0.27234,0.17921 v -0.49671 h 0.2286 v 1.37477 z m -1.1176,-0.51752 c -0.14428,0 -0.23283,0.0212 -0.27834,0.0335 -0.0452,0.0145 -0.16686,0.049 -0.16686,0.17921 0,0.0367 0.0162,0.1524 0.17921,0.1524 0.22437,0 0.26599,-0.19191 0.26599,-0.27234 z m 0.22437,0.3115 c 0,0.0967 0.0208,0.1711 0.031,0.20602 h -0.21837 c -0.0268,-0.0822 -0.031,-0.12382 -0.037,-0.20602 -0.031,0.072 -0.10054,0.22613 -0.34431,0.22613 -0.21837,0 -0.33584,-0.14605 -0.33584,-0.31256 0,-0.34255 0.46143,-0.35278 0.68015,-0.3489 v -0.0755 c 0,-0.13018 -0.11324,-0.15734 -0.2166,-0.15734 -0.20179,0 -0.22648,0.11183 -0.23672,0.15734 l -0.19614,-0.0289 c 0.0395,-0.22931 0.254,-0.29104 0.46002,-0.29104 0.11113,0 0.23883,0.0145 0.30939,0.0741 0.10442,0.0907 0.10442,0.17145 0.10442,0.2988 z m -1.57233,-0.81033 h 0.20602 v 0.24341 c 0.0247,-0.0741 0.0949,-0.28222 0.3108,-0.27234 v 0.24765 c -0.0533,0 -0.13758,-0.002 -0.21202,0.0822 -0.0395,0.0452 -0.0762,0.14675 -0.0762,0.30303 v 0.4124 h -0.2286 z m -0.70732,1.01635 v -1.16276 h -0.36477 v -0.21201 h 0.99589 v 0.21201 h -0.36548 v 1.16276 z m -1.75648,-0.51752 c -0.14429,0 -0.23283,0.0212 -0.27834,0.0335 -0.0452,0.0145 -0.16687,0.049 -0.16687,0.17921 0,0.0367 0.0159,0.1524 0.17957,0.1524 0.22472,0 0.26564,-0.19191 0.26564,-0.27234 z m 0.22472,0.3115 c 0,0.0967 0.0205,0.1711 0.031,0.20602 h -0.21837 c -0.0272,-0.0822 -0.031,-0.12382 -0.0374,-0.20602 -0.0307,0.072 -0.10089,0.22613 -0.34466,0.22613 -0.21837,0 -0.3355,-0.14605 -0.3355,-0.31256 0,-0.34255 0.46179,-0.35278 0.68016,-0.3489 v -0.0755 c 0,-0.13018 -0.11324,-0.15734 -0.21661,-0.15734 -0.20178,0 -0.22648,0.11183 -0.23671,0.15734 l -0.1965,-0.0289 c 0.0399,-0.22931 0.254,-0.29104 0.46038,-0.29104 0.11077,0 0.23918,0.0145 0.30903,0.0741 0.10513,0.0907 0.10513,0.17145 0.10513,0.2988 z m -1.7399,-0.22684 c 0,0.19368 0.0952,0.266 0.21026,0.266 0.2099,0 0.2166,-0.25577 0.21836,-0.36689 -0.004,-0.10548 -0.0162,-0.33197 -0.21237,-0.33197 -0.0988,0 -0.21625,0.072 -0.21625,0.28046 z m -0.2286,0.43286 v -1.37477 h 0.2286 v 0.49671 c 0.0536,-0.0903 0.11359,-0.18556 0.28257,-0.18556 0.19156,0 0.38735,0.15875 0.38735,0.53622 0,0.14393 -0.0328,0.2861 -0.11747,0.39969 -0.0804,0.10513 -0.17074,0.14782 -0.30092,0.14782 -0.18768,0 -0.25964,-0.10054 -0.31574,-0.18521 l -0.0617,0.1651 z m -0.68051,-0.84914 c -0.18556,0 -0.23283,0.18133 -0.23283,0.34008 0,0.0515 0,0.3422 0.22825,0.3422 0.21307,0 0.23142,-0.2413 0.23142,-0.34608 0,-0.17568 -0.0536,-0.3362 -0.22684,-0.3362 m -0.0123,0.86925 c -0.34007,0 -0.46425,-0.30057 -0.46425,-0.53305 0,-0.27622 0.16933,-0.52387 0.47872,-0.52387 0.30691,0 0.46778,0.24941 0.46778,0.52599 0,0.34396 -0.22225,0.53093 -0.48225,0.53093 m -0.91334,-0.0201 v -1.37477 h 0.2286 v 0.68756 0.68721 z m -0.29915,0 h -0.10901 l -0.0765,-0.18556 c -0.10302,0.16475 -0.23284,0.20567 -0.37077,0.20567 -0.50553,0 -0.5588,-0.54998 -0.5588,-0.70873 0,-0.29669 0.14428,-0.70697 0.58772,-0.70697 0.12595,0 0.272,0.031 0.3937,0.17533 0.0825,0.0945 0.10055,0.18168 0.11713,0.24518 l -0.21626,0.037 c -0.0145,-0.0572 -0.0621,-0.25153 -0.28857,-0.25153 -0.11783,0 -0.19579,0.06 -0.23495,0.1136 -0.0455,0.0617 -0.0974,0.1524 -0.0974,0.37077 0,0.24765 0.0561,0.52176 0.32809,0.52176 0.1584,0 0.29492,-0.11748 0.2928,-0.31962 h -0.28469 v -0.20003 h 0.51753 z m -2.28001,-0.89253 c -0.14816,0 -0.19155,0.0988 -0.19155,0.16898 0,0.0885 0.06,0.16722 0.18767,0.16722 0.0473,0 0.097,-0.0145 0.12771,-0.0353 0.0579,-0.0413 0.06,-0.0868 0.06,-0.1397 0,-0.0624 -0.037,-0.16122 -0.1838,-0.16122 m -0.1524,1.07809 c 0.0702,0.0184 0.13794,0.0229 0.19192,0.0229 0.10089,0 0.26387,-0.0166 0.26387,-0.13652 0,-0.072 -0.0783,-0.10301 -0.15063,-0.10301 h -0.16087 c -0.0762,0 -0.18133,-0.002 -0.2473,-0.0243 -0.0349,0.0328 -0.0494,0.0579 -0.0494,0.0889 0,0.0635 0.066,0.13159 0.1524,0.15205 m 0.67028,-1.22026 h -0.0702 c -0.0766,0 -0.11536,0.0229 -0.14852,0.0829 0.0536,0.0448 0.11959,0.10865 0.11959,0.21837 0,0.18309 -0.16722,0.31256 -0.4124,0.31256 -0.072,0 -0.12206,-0.01 -0.18944,-0.0265 -0.031,0.0166 -0.0702,0.037 -0.0702,0.0991 0,0.0367 0.0328,0.10125 0.16298,0.10125 h 0.25965 c 0.24941,0 0.34854,0.14393 0.34854,0.27763 0,0.12982 -0.097,0.33408 -0.52775,0.33408 -0.26847,0 -0.49283,-0.0617 -0.49283,-0.27622 0,-0.12347 0.0744,-0.16687 0.14852,-0.20602 -0.0579,-0.0515 -0.0949,-0.0928 -0.0949,-0.16687 0,-0.13017 0.1076,-0.1838 0.16298,-0.21202 -0.0554,-0.0356 -0.14217,-0.0952 -0.14217,-0.23354 0,-0.10477 0.0617,-0.30691 0.4184,-0.30691 0.0903,0 0.14005,0.0106 0.19826,0.0205 0.0138,-0.072 0.0466,-0.12171 0.0921,-0.15029 0.0455,-0.031 0.10337,-0.0434 0.16722,-0.0434 h 0.0702 z m -2.04329,0.0183 h 0.20849 v 0.23495 c 0.0388,-0.0843 0.11748,-0.25541 0.30692,-0.25541 0.3302,0 0.32385,0.30092 0.32385,0.43497 v 0.60184 h -0.2286 v -0.59761 c 0,-0.23495 -0.11783,-0.23918 -0.15734,-0.23918 -0.0487,0 -0.22436,0.0123 -0.22436,0.36054 v 0.47625 h -0.22896 z m -0.75847,1.01635 c -0.0519,0.0123 -0.11747,0.0201 -0.16087,0.0201 -0.0762,0 -0.17145,-0.0265 -0.21695,-0.0801 -0.061,-0.0699 -0.0695,-0.13582 -0.0695,-0.25153 v -0.52529 h -0.12594 v -0.17956 h 0.1404 l 0.0205,-0.26388 0.18768,-0.0166 v 0.28046 h 0.20426 v 0.17956 h -0.20426 v 0.4946 c 0,0.14005 0.0494,0.16474 0.16687,0.16474 0.0183,0 0.0328,0 0.0579,-0.002 z m -1.12924,0 v -0.83679 h -0.15099 v -0.17956 h 0.15099 c 0,-0.11324 -0.002,-0.25153 0.12312,-0.33373 0.0536,-0.0353 0.13829,-0.0536 0.32173,-0.0455 v 0.17921 c -0.0268,-0.001 -0.0413,-0.001 -0.06,-0.001 -0.16439,0 -0.16439,0.0572 -0.16439,0.20144 h 0.22436 v 0.17956 h -0.22436 v 0.83679 z m -0.60219,0 v -1.01847 h 0.2286 v 0.50941 0.50906 z m 0,-1.13594 v -0.23883 h 0.2286 v 0.11923 0.1196 z m -1.06574,1.13594 v -1.37477 h 0.2614 v 1.15005 h 0.58385 v 0.22472 z"
       style="fill:#f26424;fill-opacity:1;fill-rule:nonzero;stroke:none;stroke-width:0.35277778"
       id="path1807"
       inkscape:connector-curvature="0" />
  </g>
</svg>
